<?xml version="1.0" encoding="UTF-8"?>
<svg width="30px" height="29px" viewBox="0 0 30 29" version="1.1" xmlns="http://www.w3.org/2000/svg" xmlns:xlink="http://www.w3.org/1999/xlink">
    <!-- Generator: sketchtool 51.1 (57501) - http://www.bohemiancoding.com/sketch -->
    <title>D1363F6B-36BE-4AB3-BCFE-73083158582B</title>
    <desc>Created with sketchtool.</desc>
    <defs>
        <polygon id="path-1" points="14.1975 0.000171428571 14.1975 11.8677429 0.000166666667 11.8677429 0.000166666667 0.000171428571 14.1975 0.000171428571"></polygon>
    </defs>
    <g id="Symbols" stroke="none" stroke-width="1" fill="none" fill-rule="evenodd">
        <g id="icon_twitter">
            <g id="Group-6">
                <ellipse id="Oval" fill="#53ACF0" cx="14.625" cy="14.5" rx="14.625" ry="14.5"></ellipse>
                <g id="Page-1" transform="translate(8.000000, 9.000000)">
                    <mask id="mask-2" fill="white">
                        <use xlink:href="#path-1"></use>
                    </mask>
                    <g id="Clip-2"></g>
                    <path d="M14.1976667,1.40502857 C13.676,1.64331429 13.1135,1.80445714 12.5251667,1.87645714 C13.1268333,1.50617143 13.5885,0.919028571 13.8051667,0.2196 C13.2426667,0.563314286 12.6193333,0.811885714 11.9551667,0.9456 C11.4251667,0.3636 10.6676667,0.000171428571 9.82933333,0.000171428571 C8.22183333,0.000171428571 6.91766667,1.3416 6.91766667,2.99588571 C6.91766667,3.23074286 6.94183333,3.45874286 6.99266667,3.67817143 C4.57183333,3.55302857 2.426,2.3616 0.9885,0.547885714 C0.737666667,0.991885714 0.594333333,1.50617143 0.594333333,2.05474286 C0.594333333,3.0936 1.1085,4.01074286 1.89016667,4.54817143 C1.41266667,4.5336 0.9635,4.39731429 0.570166667,4.17445714 L0.570166667,4.21131429 C0.570166667,5.66331429 1.57433333,6.87445714 2.90766667,7.14874286 C2.66266667,7.21902857 2.406,7.25417143 2.13933333,7.25417143 C1.95183333,7.25417143 1.7685,7.23617143 1.59183333,7.20102857 C1.96183333,8.39074286 3.03766667,9.25817143 4.31266667,9.28045714 C3.31516667,10.0844571 2.05933333,10.5636 0.695166667,10.5636 C0.460166667,10.5636 0.227666667,10.5498857 0.000166666667,10.5224571 C1.28933333,11.3710286 2.82016667,11.8681714 4.46516667,11.8681714 C9.8235,11.8681714 12.7526667,7.30302857 12.7526667,3.34388571 C12.7526667,3.2136 12.7501667,3.08331429 12.7443333,2.95645714 C13.3135,2.53302857 13.8085,2.00588571 14.1976667,1.40502857" id="Fill-1" fill="#FEFEFE" mask="url(#mask-2)"></path>
                </g>
            </g>
        </g>
    </g>
</svg>