<?xml version="1.0" encoding="UTF-8"?>
<svg width="20px" height="20px" viewBox="0 0 20 20" version="1.1" xmlns="http://www.w3.org/2000/svg" xmlns:xlink="http://www.w3.org/1999/xlink">
    <!-- Generator: sketchtool 51.1 (57501) - http://www.bohemiancoding.com/sketch -->
    <title>9692B5B5-AB58-4B8C-A446-B8A1A1BFF6F9</title>
    <desc>Created with sketchtool.</desc>
    <defs></defs>
    <g id="Symbols" stroke="none" stroke-width="1" fill="none" fill-rule="evenodd">
        <g id="icon_google">
            <g id="Group-10">
                <ellipse id="Oval" fill="#23E2A1" cx="9.75" cy="9.66666667" rx="9.75" ry="9.66666667"></ellipse>
                <path d="M14.2254774,8.81268603 C14.216173,8.7690649 14.2025669,8.75383351 14.1564872,8.75387715 C12.6581518,8.75521917 11.1598164,8.75520826 9.66148099,8.75394261 C9.61536891,8.75389897 9.60576267,8.76813748 9.60596752,8.81207503 C9.60767098,9.172053 9.60692707,9.53204188 9.60692707,9.89203076 C9.60692707,10.1429341 9.60770333,10.3938374 9.6060969,10.6447189 C9.60585971,10.6826665 9.6156061,10.6955302 9.65391244,10.6934572 C9.7130269,10.6902603 9.77244324,10.6926171 9.8317302,10.6926171 C10.6204225,10.6926171 11.4091149,10.6926934 12.1978072,10.692377 C12.2304425,10.6923552 12.2580861,10.6881873 12.2462696,10.7395332 C12.1468219,11.1718821 11.954018,11.5524378 11.6425755,11.8686637 C11.5241633,11.9888891 11.3905601,12.0895843 11.2536254,12.1863298 C11.160474,12.2405562 11.0680882,12.2962882 10.9696755,12.3405313 C10.3796629,12.6057713 9.76366718,12.6834885 9.12876084,12.5807966 C8.42074578,12.4662993 7.83617785,12.1220328 7.37091697,11.5707787 C7.12684745,11.2815896 6.95170348,10.9527291 6.83044499,10.5936458 C6.82656368,10.57968 6.82293035,10.5656379 6.81876872,10.5517594 C6.70085246,10.159202 6.66086422,9.75942166 6.70381735,9.35069451 C6.72591924,9.14030275 6.77298008,8.93603192 6.83226705,8.73392141 C6.83808901,8.7187664 6.84434222,8.70370958 6.84971136,8.68834726 C7.30334988,7.38907478 8.56354553,6.58486612 9.91681707,6.73100454 C10.4627013,6.78995526 10.9498377,6.99488073 11.3809538,7.33700874 C11.4162414,7.3650166 11.4339121,7.36652229 11.4671404,7.33268809 C11.9167682,6.87487353 12.3677438,6.41840099 12.8201532,5.9634014 C12.8569394,5.926414 12.8588045,5.91030975 12.8177597,5.8754063 C12.0220595,5.19875508 11.1129927,4.79130448 10.0749695,4.69063111 C9.37373599,4.62263539 8.68714359,4.69843228 8.02035664,4.92888889 C6.9316285,5.30515659 6.07491626,5.98611756 5.44620924,6.96046827 C5.34433572,7.11834664 5.24870463,7.28041474 5.17508918,7.45450647 L5.17507839,7.45450647 C5.16689531,7.46817763 5.15747236,7.48128143 5.15071241,7.49565087 C4.77819321,8.28799956 4.6231889,9.12233277 4.67707438,9.99762488 C4.70501979,10.451588 4.79256482,10.8931346 4.9402162,11.3223521 C5.00558388,11.5124063 5.07714008,11.7002019 5.17293289,11.8773704 C5.17976831,11.8940202 5.1855687,11.9111937 5.19360085,11.9272325 C5.56544083,12.6695009 6.08489985,13.2847247 6.7596327,13.7598328 C7.79110078,14.4861278 8.93652834,14.7707126 10.1838833,14.6331173 C10.9031542,14.5537744 11.5706204,14.3186262 12.1824653,13.9262433 C12.4118828,13.779112 12.6287401,13.6149491 12.8236895,13.42256 C12.8324763,13.4165264 12.842309,13.4116166 12.8499099,13.4043173 C13.2503098,13.0202157 13.5702373,12.5764651 13.8108999,12.0742111 C14.1597539,11.3461593 14.3091088,10.5722716 14.3258739,9.76836846 C14.3326014,9.44568339 14.2926671,9.12777722 14.2254774,8.81268603" id="Fill-1" fill="#FEFEFE"></path>
            </g>
        </g>
    </g>
</svg>