<?xml version="1.0" encoding="UTF-8"?>
<svg width="30px" height="29px" viewBox="0 0 30 29" version="1.1" xmlns="http://www.w3.org/2000/svg" xmlns:xlink="http://www.w3.org/1999/xlink">
    <!-- Generator: sketchtool 51.1 (57501) - http://www.bohemiancoding.com/sketch -->
    <title>994B620D-A17B-41FC-8227-F3557DEF3F04</title>
    <desc>Created with sketchtool.</desc>
    <defs>
        <polygon id="path-1" points="3.69971311 3.68464234 3.69971311 0.0205897959 0.0377090164 0.0205897959 0.0377090164 3.68464234 3.69971311 3.68464234"></polygon>
    </defs>
    <g id="Symbols" stroke="none" stroke-width="1" fill="none" fill-rule="evenodd">
        <g id="icon_appnexus">
            <ellipse id="Oval" fill="#352E56" cx="14.625" cy="14.5" rx="14.625" ry="14.5"></ellipse>
            <g id="Page-1" transform="translate(7.000000, 7.000000)">
                <path d="M9.87377459,0.0612428571 C9.81580328,2.37497755 11.6651066,4.62289592 13.9746762,5.04246735 C14.2258033,5.08801837 14.4839385,5.10142653 14.7302705,5.16344694 C14.815291,5.18487551 14.9347377,5.30793673 14.9359672,5.38618163 C14.9492459,6.22201837 14.9427295,7.05828367 14.9399016,7.89436531 C14.9379959,8.45407959 14.9138361,9.0145898 14.9382418,9.57314082 C14.9497992,9.83848776 14.8759057,9.9138551 14.6199221,9.90338571 C12.552873,9.81889592 10.6887541,9.15797755 9.05043443,7.90942653 C6.74565984,6.15289592 5.44865164,3.81467143 5.11354918,0.947222449 C5.07936885,0.654508163 5.08926639,0.356712245 5.07869262,0.0612428571 L9.87377459,0.0612428571 Z" id="Fill-1" fill="#FFFFFF"></path>
                <path d="M3.6647582,0.0612428571 C3.67883607,1.57556939 3.96408197,3.0351 4.55522951,4.43291633 C4.58695082,4.5078551 4.61805738,4.58316122 4.64590574,4.65963061 C4.6517459,4.67567143 4.64178689,4.6973449 4.6357623,4.73965102 C4.57797541,4.72324286 4.52160246,4.71350816 4.47039344,4.69165102 C3.15992213,4.13267143 1.79977869,3.79152857 0.368262295,3.76869184 C0.1665,3.76544694 0.0144098361,3.70967143 0.015147541,3.48479388 C0.0188360656,2.34363061 0.0294713115,1.20246735 0.0377090164,0.0612428571 L3.6647582,0.0612428571 Z" id="Fill-3" fill="#FFFFFF"></path>
                <g id="Group-7" transform="translate(11.250000, 0.040653)">
                    <mask id="mask-2" fill="white">
                        <use xlink:href="#path-1"></use>
                    </mask>
                    <g id="Clip-6"></g>
                    <path d="M3.54180738,0.0205897959 C3.59301639,0.146038776 3.68713525,0.270936735 3.68867213,0.396997959 C3.70090574,1.39336531 3.68965574,2.39003878 3.69967623,3.38646735 C3.7022582,3.64079388 3.59344672,3.69289592 3.36506557,3.68365102 C1.89777049,3.62426327 0.464901639,2.38912041 0.129430328,0.866712245 C0.068692623,0.591263265 0.0667868852,0.302957143 0.0377090164,0.0205897959 L3.54180738,0.0205897959 Z" id="Fill-5" fill="#FFFFFF" mask="url(#mask-2)"></path>
                </g>
                <path d="M7.45954303,14.9703918 C6.80396926,14.9704531 6.14765779,14.9516571 5.49319057,14.9784122 C5.16884631,14.991698 5.06931762,14.8731673 5.04079303,14.5711469 C4.88384631,12.9095143 4.07802664,11.627351 2.68517828,10.7181673 C1.99124385,10.2651673 1.22464549,9.98469796 0.383969262,9.95065714 C0.110834016,9.93963673 -0.00375614754,9.83892245 0.000116803279,9.54026939 C0.0175758197,8.18384082 0.0162848361,6.8270449 0.00694057377,5.47049388 C0.00515778689,5.20796327 0.0955266393,5.14092245 0.346161885,5.15671837 C3.59685861,5.36139184 6.17944057,6.7783102 8.07521926,9.40937143 C9.18239139,10.9459837 9.76216598,12.6783918 9.85554713,14.5689429 C9.87515779,14.9660449 9.86950205,14.9686163 9.45478893,14.9697796 C8.78968648,14.9717388 8.12458402,14.9703306 7.45954303,14.9703918" id="Fill-8" fill="#FFFFFF"></path>
                <path d="M10.2829119,10.2925469 C11.7751045,10.9604449 13.2969283,11.3023837 14.9068463,11.3282204 C14.9214775,11.5363224 14.9429939,11.7055469 14.9436086,11.8748327 C14.9470512,12.8018327 14.9397971,13.7288939 14.9491414,14.6558939 C14.9515389,14.8947306 14.8679324,14.9767102 14.627502,14.9742 C13.6874201,14.9642816 12.7472152,14.9705265 11.8070102,14.9705265 C11.2805348,14.9705265 11.3131783,14.9581592 11.2440184,14.4215878 C11.1299201,13.5367714 10.9878504,12.6529959 10.7998586,11.7811592 C10.6943668,11.2917918 10.4729939,10.8272204 10.2829119,10.2925469" id="Fill-10" fill="#FFFFFF"></path>
                <path d="M1.87101639,14.9700918 C1.3697459,14.9700918 0.868229508,14.9610918 0.367327869,14.9738878 C0.115647541,14.9803776 0.0088647541,14.8761735 0.00892622951,14.6355 C0.00911065574,13.6165408 0.0107090164,12.5975204 0.0051147541,11.5785612 C0.00394672131,11.3542959 0.134028689,11.3307245 0.305790984,11.3459082 C1.36015574,11.4390306 2.21988934,11.9018265 2.87798361,12.7216224 C3.32896721,13.2834184 3.58661066,13.9292755 3.65066803,14.651051 C3.67187705,14.8904388 3.58993033,14.9808061 3.34427459,14.9740714 C2.85351639,14.9606633 2.36214344,14.9700918 1.87101639,14.9700918" id="Fill-12" fill="#FFFFFF"></path>
            </g>
        </g>
    </g>
</svg>