<?xml version="1.0" encoding="UTF-8"?>
<svg width="17px" height="21px" viewBox="0 0 17 21" version="1.1" xmlns="http://www.w3.org/2000/svg" xmlns:xlink="http://www.w3.org/1999/xlink">
    <!-- Generator: sketchtool 51.1 (57501) - http://www.bohemiancoding.com/sketch -->
    <title>3A0C2F61-54CD-4C5E-870A-2D759175CBA6</title>
    <desc>Created with sketchtool.</desc>
    <defs></defs>
    <g id="Symbols" stroke="none" stroke-width="1" fill="none" fill-rule="evenodd">
        <g id="fire" fill="#5B31DA">
            <g id="Page-1">
                <path d="M2.02350209,9.71930369 C1.53792773,10.9335849 1.29479519,11.9993619 1.29479519,12.9166347 C1.29479519,14.8589321 1.95581178,16.4717573 3.27784495,17.7530382 C4.59918741,19.0350097 6.2866101,19.6753048 8.33735017,19.6753048 C10.4143375,19.6753048 12.1349146,19.0350097 13.4970094,17.7530382 C14.8591042,16.4717573 15.5408423,14.8589321 15.5408423,12.9166347 C15.5408423,12.0532379 15.4738427,11.3652833 15.3384621,10.852771 C15.2030815,10.3402587 14.9337017,9.74693238 14.5289413,9.07210145 C14.0696142,8.31645657 13.7601728,7.53387372 13.5985449,6.72435288 C13.4631643,6.96748542 13.3554123,7.22374159 13.2745984,7.49312139 C12.9768992,8.46496082 12.869838,9.47617115 12.9506519,10.5288245 C12.9768992,10.852771 12.8353021,11.0689656 12.5258607,11.1760268 C12.2157286,11.2844694 11.9656889,11.2036555 11.777123,10.9335849 C10.9676022,9.80011763 10.4012139,8.86972124 10.0772674,8.14101435 C9.26774655,6.41422076 8.95761443,4.36417141 9.146871,1.98948486 C7.4193867,2.98757156 6.33979534,4.59348959 5.90878766,6.80516682 C5.7202218,7.5884404 5.69259311,8.471868 5.82797372,9.45614034 C5.96266362,10.4411034 6.076632,11.1228415 6.17195101,11.4999732 C6.2665793,11.8777957 6.35430041,12.1616805 6.43511435,12.3502464 C6.51592829,12.5926882 6.4689595,12.8088828 6.29351728,12.9974486 C6.11738433,13.1867052 5.90878766,13.2543955 5.66565513,13.1998288 C5.50402725,13.1459529 5.30164704,13.0782626 5.05920522,12.9974486 C4.81607268,12.9166347 4.43134307,12.6735022 3.9057071,12.2687417 C3.37938041,11.8639813 2.94008412,11.3922213 2.58989038,10.852771 C2.40132452,10.5557625 2.21137723,10.1786308 2.02350209,9.71930369 M8.33735017,20.9704 C5.90878766,20.9704 3.91123284,20.207848 2.34744856,18.6841253 C0.782282855,17.1597119 -0.0003,15.2374453 -0.0003,12.9166347 C-0.0003,12.1616805 0.135080617,11.3314382 0.404460417,10.4272891 C0.673840217,9.52383065 0.903849124,8.88975205 1.09241498,8.52505324 C1.28098084,8.16104515 1.43017581,7.87163455 1.53792773,7.65543999 C1.67261763,7.41230745 1.88812147,7.30455553 2.18512997,7.33149351 C2.48213846,7.35912221 2.67070432,7.52075009 2.75220898,7.81706787 C2.9946508,8.78821658 3.30409221,9.57149016 3.68260537,10.1648164 C4.03279911,10.7042668 4.39749791,11.1090272 4.77532035,11.378407 C4.39749791,9.70618006 4.35674559,8.10026202 4.6544448,6.562725 C4.81607268,5.61851427 5.10548329,4.76133393 5.52405805,3.99256543 C5.94263282,3.22379692 6.35982615,2.62356347 6.77909163,2.19186507 C7.19697568,1.76016667 7.65492134,1.38925141 8.15500077,1.07842856 C8.65438947,0.768987152 9.00458321,0.566606944 9.20696342,0.471287937 C9.40934363,0.377350366 9.57787868,0.316567232 9.7132593,0.289629252 C9.95570112,0.235753292 10.1642978,0.289629252 10.3404307,0.451257132 C10.515873,0.612885012 10.5766561,0.802141589 10.5227801,1.01764543 C10.4682135,1.31534464 10.4212447,1.68556919 10.3811831,2.13108194 C10.3404307,2.57590396 10.3742759,3.37230117 10.4820278,4.51889211 C10.589089,5.66548306 10.8460359,6.68360056 11.2507963,7.57462605 C11.3585482,7.84469657 11.5201761,8.15482869 11.7370614,8.50502243 C11.7909373,8.01944808 11.8841842,7.57462605 12.0202555,7.16986563 C12.1549454,6.63041531 12.3904801,6.15796459 12.7282409,5.75320417 C13.065311,5.34844375 13.3153507,5.09218758 13.4769786,4.98443566 C13.6386065,4.87668374 13.7739871,4.7958698 13.881739,4.74130313 C14.1248716,4.63355121 14.3472826,4.66048919 14.5496628,4.82211707 C14.752043,4.98443566 14.8390734,5.18681587 14.8128261,5.42925769 C14.6767548,6.26571651 14.947516,7.26449392 15.6216562,8.42420849 C16.1079213,9.20679135 16.4311771,9.90856026 16.5934957,10.5288245 C16.7551236,11.1497795 16.8359375,11.945486 16.8359375,12.9166347 C16.8359375,15.2374453 16.0326331,17.1597119 14.4280965,18.6841253 C12.8228692,20.207848 10.7914692,20.9704 8.33735017,20.9704" id="Fill-1"></path>
            </g>
        </g>
    </g>
</svg>