<?xml version="1.0" encoding="UTF-8"?>
<svg width="13px" height="18px" viewBox="0 0 13 18" version="1.1" xmlns="http://www.w3.org/2000/svg" xmlns:xlink="http://www.w3.org/1999/xlink">
    <!-- Generator: sketchtool 51.1 (57501) - http://www.bohemiancoding.com/sketch -->
    <title>22A26336-5128-471E-AB6C-88AFFA02124A</title>
    <desc>Created with sketchtool.</desc>
    <defs></defs>
    <g id="Symbols" stroke="none" stroke-width="1" fill="none" fill-rule="evenodd">
        <g id="icon_doc" fill="#352E56">
            <path d="M6.75172727,1.125 L6.64772727,1.125 L6.64772727,6.1878 L11.6338182,6.1878 L11.6338182,6.0822 L6.75172727,1.125 Z M11.6338182,16.875 L11.6338182,7.3128 L5.53977273,7.3128 L5.53977273,1.125 L1.10795455,1.125 L1.10795455,16.875 L11.6338182,16.875 Z M12.7417727,5.625 L12.7417727,16.875 C12.7417727,17.1792 12.6318636,17.4432 12.4126364,17.6658 C12.1928182,17.8884 11.9334091,18 11.6338182,18 L1.10795455,18 C0.807772727,18 0.548363636,17.8884 0.329136364,17.6658 C0.109318182,17.4432 0,17.1792 0,16.875 L0,1.125 C0,0.8208 0.109318182,0.5568 0.329136364,0.3342 C0.548363636,0.1116 0.807772727,0 1.10795455,0 L7.202,0 L12.7417727,5.625 Z" id="Fill-1"></path>
        </g>
    </g>
</svg>