<?xml version="1.0" encoding="UTF-8"?>
<svg width="19px" height="20px" viewBox="0 0 19 20" version="1.1" xmlns="http://www.w3.org/2000/svg" xmlns:xlink="http://www.w3.org/1999/xlink">
    <!-- Generator: sketchtool 51.1 (57501) - http://www.bohemiancoding.com/sketch -->
    <title>73540C62-927D-4A54-9827-87AC57DBAF73</title>
    <desc>Created with sketchtool.</desc>
    <defs></defs>
    <g id="Symbols" stroke="none" stroke-width="1" fill="none" fill-rule="evenodd">
        <g id="icon_complete" fill="#000000">
            <path d="M14.1201667,7.03028333 C14.4051667,7.31528333 14.4115,7.59236667 14.1391667,7.8647 L8.20166667,13.8022 C8.17633333,13.8528667 8.16366667,13.8892833 8.16366667,13.9146167 C7.86758333,14.18695 7.58258333,14.18695 7.31025,13.9146167 L4.3795,10.9458667 C4.08183333,10.6735333 4.0755,10.4012 4.3605,10.1288667 C4.6455,9.85653333 4.92258333,9.85653333 5.19491667,10.1288667 L7.71875,12.6147 L13.28575,7.01128333 C13.5580833,6.73895 13.8351667,6.74528333 14.1201667,7.03028333 M17.8125,10.4993667 C17.8125,8.19878333 17.0018333,6.23861667 15.3820833,4.61886667 C13.76075,2.99753333 11.8005833,2.18686667 9.5,2.18686667 C7.19941667,2.18686667 5.23925,2.99753333 3.61791667,4.61886667 C1.99816667,6.23861667 1.1875,8.19878333 1.1875,10.4993667 C1.1875,12.8015333 1.99816667,14.7680333 3.61791667,16.40045 C5.23925,18.0328667 7.19941667,18.8498667 9.5,18.8498667 C11.8005833,18.8498667 13.76075,18.0328667 15.3820833,16.40045 C17.0018333,14.7680333 17.8125,12.8015333 17.8125,10.4993667 M19,10.4993667 C19,13.12295 18.0721667,15.3617833 16.2165,17.21745 C14.3608333,19.0715333 12.122,19.9993667 9.5,19.9993667 C6.878,19.9993667 4.63916667,19.0715333 2.7835,17.21745 C0.927833333,15.3617833 0,13.12295 0,10.4993667 C0,7.87736667 0.927833333,5.63853333 2.7835,3.78286667 C4.63916667,1.9272 6.878,0.999366667 9.5,0.999366667 C12.122,0.999366667 14.3608333,1.9272 16.2165,3.78286667 C18.0721667,5.63853333 19,7.87736667 19,10.4993667" id="Fill-1"></path>
        </g>
    </g>
</svg>