<?xml version="1.0" encoding="UTF-8"?>
<svg width="18px" height="20px" viewBox="0 0 18 20" version="1.1" xmlns="http://www.w3.org/2000/svg" xmlns:xlink="http://www.w3.org/1999/xlink">
    <!-- Generator: sketchtool 51.1 (57501) - http://www.bohemiancoding.com/sketch -->
    <title>62B825C4-A528-4EF0-8220-A030B7E7DC9F</title>
    <desc>Created with sketchtool.</desc>
    <defs></defs>
    <g id="Page-1" stroke="none" stroke-width="1" fill="none" fill-rule="evenodd">
        <g id="UI_icons" transform="translate(-95.000000, -15.000000)" fill="#5B31DA">
            <g id="lock" transform="translate(95.500000, 14.973684)">
                <path d="M9.80769231,12.5 C9.80769231,12.9683333 9.58974359,13.3333333 9.15384615,13.5933333 L9.15384615,15.625 C9.15384615,15.8066667 9.09282051,15.9566667 8.97076923,16.075 C8.84697436,16.1916667 8.69005128,16.25 8.5,16.25 C8.30994872,16.25 8.15302564,16.1916667 8.02923077,16.075 C7.90717949,15.9566667 7.84615385,15.8066667 7.84615385,15.625 L7.84615385,13.5933333 C7.41025641,13.3333333 7.19230769,12.9683333 7.19230769,12.5 C7.19230769,12.1616667 7.32133333,11.8683333 7.58112821,11.6216667 C7.83917949,11.3733333 8.14605128,11.25 8.5,11.25 C8.85394872,11.25 9.16082051,11.3733333 9.41887179,11.6216667 C9.67866667,11.8683333 9.80769231,12.1616667 9.80769231,12.5 Z M4.57692308,7.5 L12.4230769,7.5 L12.4230769,5.11666667 C12.4230769,4.02333333 12.0551795,3.105 11.3193846,2.36333333 C10.5835897,1.62166667 9.63682051,1.25 8.47907692,1.25 C7.32133333,1.25 6.38153846,1.62166667 5.65969231,2.36333333 C4.93784615,3.105 4.57692308,4.02333333 4.57692308,5.11666667 L4.57692308,7.5 Z M15.6923077,10 C15.6923077,9.66166667 15.5632821,9.36833333 15.3034872,9.12166667 C15.0454359,8.87333333 14.7385641,8.75 14.3846154,8.75 L2.61538462,8.75 C2.2614359,8.75 1.9545641,8.87333333 1.69651282,9.12166667 C1.43671795,9.36833333 1.30769231,9.66166667 1.30769231,10 L1.30769231,17.5 C1.30769231,17.8383333 1.43671795,18.1316667 1.69651282,18.3783333 C1.9545641,18.6266667 2.2614359,18.75 2.61538462,18.75 L14.3846154,18.75 C14.7385641,18.75 15.0454359,18.6266667 15.3034872,18.3783333 C15.5632821,18.1316667 15.6923077,17.8383333 15.6923077,17.5 L15.6923077,10 Z M16.2241026,8.24166667 C16.7419487,8.73666667 17,9.32333333 17,10 L17,17.5 C17,18.1766667 16.7419487,18.7633333 16.2241026,19.2583333 C15.7062564,19.7533333 15.0925128,20 14.3846154,20 L2.61538462,20 C1.90748718,20 1.29374359,19.7533333 0.775897436,19.2583333 C0.258051282,18.7633333 0,18.1766667 0,17.5 L0,10 C0,9.32333333 0.258051282,8.73666667 0.775897436,8.24166667 C1.29374359,7.74666667 1.90748718,7.5 2.61538462,7.5 L3.26923077,7.5 L3.26923077,5.11666667 C3.26923077,3.685 3.75917949,2.47333333 4.74082051,1.485 C5.72071795,0.495 6.96738462,0 8.47907692,0 C9.99076923,0 11.2444103,0.488333333 12.24,1.465 C13.2338462,2.44166667 13.7307692,3.65833333 13.7307692,5.11666667 L13.7307692,7.5 L14.3846154,7.5 C15.0925128,7.5 15.7062564,7.74666667 16.2241026,8.24166667 Z" id="Page-1"></path>
            </g>
        </g>
    </g>
</svg>