<?xml version="1.0" encoding="UTF-8"?>
<svg width="18px" height="20px" viewBox="0 0 18 20" version="1.1" xmlns="http://www.w3.org/2000/svg" xmlns:xlink="http://www.w3.org/1999/xlink">
    <!-- Generator: sketchtool 51.1 (57501) - http://www.bohemiancoding.com/sketch -->
    <title>59FF7F64-1B20-42E5-AB39-F92343C73DA4</title>
    <desc>Created with sketchtool.</desc>
    <defs></defs>
    <g id="Page-1" stroke="none" stroke-width="1" fill="none" fill-rule="evenodd">
        <g id="UI_icons" transform="translate(-67.000000, -15.000000)" fill="#B7B3CC">
            <g id="unlock" transform="translate(67.500000, 14.973684)">
                <path d="M9.80769231,12.5228676 C9.80769231,12.9897729 9.58974359,13.3403674 9.15384615,13.5746509 L9.15384615,15.6383394 C9.15384615,15.7945284 9.09282051,15.9374247 8.97076923,16.0670283 C8.84697436,16.196632 8.69005128,16.2614338 8.5,16.2614338 C8.30994872,16.2614338 8.15302564,16.196632 8.02923077,16.0670283 C7.90717949,15.9374247 7.84615385,15.7945284 7.84615385,15.6383394 L7.84615385,13.5746509 C7.41025641,13.3403674 7.19230769,12.9897729 7.19230769,12.5228676 C7.19230769,12.1589805 7.32133333,11.8615567 7.58112821,11.6272733 C7.83917949,11.3929898 8.14605128,11.2766788 8.5,11.2766788 C8.85394872,11.2766788 9.16082051,11.3929898 9.41887179,11.6272733 C9.67866667,11.8615567 9.80769231,12.1589805 9.80769231,12.5228676 Z M15.6923077,10.0304901 C15.6923077,9.66660297 15.5632821,9.36917926 15.3034872,9.13489578 C15.0454359,8.90061229 14.7385641,8.78430135 14.3846154,8.78430135 L2.61538462,8.78430135 C2.2614359,8.78430135 1.9545641,8.90061229 1.69651282,9.13489578 C1.43671795,9.36917926 1.30769231,9.66660297 1.30769231,10.0304901 L1.30769231,17.5076225 C1.30769231,17.8449243 1.43671795,18.1373632 1.69651282,18.3832778 C1.9545641,18.630854 2.2614359,18.7538113 2.61538462,18.7538113 L14.3846154,18.7538113 C14.7385641,18.7538113 15.0454359,18.630854 15.3034872,18.3832778 C15.5632821,18.1373632 15.6923077,17.8449243 15.6923077,17.5076225 L15.6923077,10.0304901 Z M16.2241026,8.25924049 C16.7419487,8.73943855 17,9.32930122 17,10.0304901 L17,17.5076225 C17,18.182226 16.7419487,18.7671039 16.2241026,19.2605947 C15.7062564,19.7540854 15.0925128,20 14.3846154,20 L2.61538462,20 C1.90748718,20 1.29374359,19.7540854 0.775897436,19.2605947 C0.258051282,18.7671039 0,18.182226 0,17.5076225 L0,10.0304901 C0,9.32930122 0.258051282,8.73943855 0.775897436,8.25924049 C1.29374359,7.77904243 1.90748718,7.53811261 2.61538462,7.53811261 L3.71907692,7.53811261 L3.43312821,6.40823482 C3.05128205,5.00751867 3.20123077,3.71480555 3.88297436,2.53341863 C4.56297436,1.3520317 5.63876923,0.57440993 7.11035897,0.197230138 C8.58194872,-0.179949654 9.92276923,-0.0171143254 11.1363077,0.684074539 C12.3481026,1.3852634 13.1588718,2.42375402 13.5668718,3.79954639 L13.8127179,4.85132968 C13.8667692,5.03244245 13.8458462,5.19527778 13.7516923,5.33817408 C13.6557949,5.48107039 13.5267692,5.57744232 13.3628718,5.63061304 C13.1989744,5.68212218 13.0368205,5.66218316 12.8729231,5.57079598 C12.7090256,5.48107039 12.6009231,5.3581131 12.5451282,5.20192412 L12.3010256,4.15014082 C12.0011282,3.08506484 11.394359,2.28750405 10.4824615,1.75579685 C9.56882051,1.22242807 8.55405128,1.09947079 7.43815385,1.3852634 C6.32051282,1.67105602 5.50974359,2.26091869 5.00584615,3.156513 C4.50194872,4.05210731 4.39907692,5.01914977 4.69897436,6.05764038 L5.06687179,7.53811261 L14.3846154,7.53811261 C15.0925128,7.53811261 15.7062564,7.77904243 16.2241026,8.25924049 Z" id="Page-1"></path>
            </g>
        </g>
    </g>
</svg>